<svg width="12" height="12" viewBox="0 0 12 12" fill="none" xmlns="http://www.w3.org/2000/svg">
<path fill-rule="evenodd" clip-rule="evenodd" d="M11.2388 0.461914H6.83115C6.64653 0.461914 6.46191 0.577299 6.46191 0.761914V1.45422C6.46191 1.63884 6.62345 1.84653 6.83115 1.84653H8.65422C8.86191 1.84653 8.9773 2.0773 8.81576 2.21576L4.89268 6.13884C4.75422 6.2773 4.75422 6.48499 4.89268 6.62345L5.3773 7.10807C5.51576 7.24653 5.72345 7.24653 5.86191 7.10807L9.78499 3.18499C9.92345 3.04653 10.1542 3.13884 10.1542 3.34653V5.16961C10.1542 5.35422 10.3388 5.56191 10.5235 5.56191H11.1927C11.3773 5.56191 11.5388 5.35422 11.5388 5.16961V0.784991C11.5388 0.577299 11.4235 0.461914 11.2388 0.461914ZM8.3773 5.88499L7.59268 6.69268C7.45422 6.83114 7.38499 6.99268 7.38499 7.1773V9.80807C7.38499 9.99268 7.22345 10.1542 7.03884 10.1542H2.19268C2.00807 10.1542 1.84653 9.99268 1.84653 9.80807V4.96191C1.84653 4.7773 2.00807 4.61576 2.19268 4.61576H4.84653C5.03114 4.61576 5.21576 4.54653 5.33114 4.40807L6.11576 3.62345C6.25422 3.48499 6.16191 3.23114 5.95422 3.23114H1.38499C0.877299 3.23114 0.461914 3.64653 0.461914 4.15422V10.6158C0.461914 11.1235 0.877299 11.5388 1.38499 11.5388H7.84653C8.35422 11.5388 8.76961 11.1235 8.76961 10.6158V6.04653C8.76961 5.83884 8.51576 5.74653 8.3773 5.88499Z" fill="#032D60"/>
</svg>
